# xmcd
#
# Track frame offsets: 
#        150
#        27622
#        55421
#        79793
#        106886
#        132074
#        147130
#        161855
#        180803
#        206665
#        229196
#        249793
#        268660
#        282249
#
# Disc length: 4038 seconds
#
# Revision: 0
# Processed by: cddbd v1.5.2PL0 Copyright (c) Steve Scherf et al.
# Submitted via: ExactAudioCopy v1.1
#
DISCID=bf0fc40e
DTITLE=Various Artist - Belgian New Beat - The Compilation - CD 1
DYEAR=2018
DGENRE=Electronic
TTITLE0=Beat-A-Max - Caravan
TTITLE1=In-D - Virgin In D-Sky (Special Adventure Mix)
TTITLE2=Inouï - Externia
TTITLE3=Boytronic - Bryllyant
TTITLE4=White House White - Oddball Harry
TTITLE5=Body Count - Trax (Instrumental)
TTITLE6=Shriekback - Into Method (Planet Mix)
TTITLE7=The Rude Boy Farley Keith - Give Your Self To Me
TTITLE8=Major Problem - Acid Queen (Dirty Version)
TTITLE9=Spiritual Sky - Sky My House Band (Ecoutez Et Répétez)
TTITLE10=Dr Phibes - Acid Story
TTITLE11=Corruption House - Jump (Special Mix)
TTITLE12=Acid Aliens - Balearic
TTITLE13=L&O - Even Now
EXTD=
EXTT0=
EXTT1=
EXTT2=
EXTT3=
EXTT4=
EXTT5=
EXTT6=
EXTT7=
EXTT8=
EXTT9=
EXTT10=
EXTT11=
EXTT12=
EXTT13=
PLAYORDER=
